<?xml version="1.0" encoding="utf-8"?>
<!-- Generator: Adobe Illustrator 16.0.0, SVG Export Plug-In . SVG Version: 6.00 Build 0)  -->
<!DOCTYPE svg PUBLIC "-//W3C//DTD SVG 1.1//EN" "http://www.w3.org/Graphics/SVG/1.1/DTD/svg11.dtd">
<svg version="1.1" id="Layer_1" xmlns="http://www.w3.org/2000/svg" xmlns:xlink="http://www.w3.org/1999/xlink" x="0px" y="0px"
	 width="359.307px" height="96.006px" viewBox="0 0 359.307 96.006" enable-background="new 0 0 359.307 96.006"
	 xml:space="preserve">
<linearGradient id="SVGID_1_" gradientUnits="userSpaceOnUse" x1="47.8198" y1="94.5449" x2="47.8198" y2="0">
	<stop  offset="0" style="stop-color:#ACD4EC"/>
	<stop  offset="0.6053" style="stop-color:#245A96"/>
	<stop  offset="1" style="stop-color:#1F3B60"/>
</linearGradient>
<path fill="url(#SVGID_1_)" d="M25.852,60.299c-0.555-2.238-0.387-24.688,0-26.051c0.421-1.491,13.047-10.721,21.375-16
	c0.061-0.039,0.601-0.326,0.667-0.369c8.312,5.159,21.476,14.675,21.899,16.368c0.55,2.238,0.385,24.691,0,26.053
	c-0.433,1.529-13.697,11.195-22.006,16.396C39.475,71.539,26.271,61.997,25.852,60.299z M95.126,28.456
	C94.283,25.067,58.149,0.013,54.188,0H41.45C37.506,0,1.375,25.406,0.509,28.456c-0.552,1.971-0.794,34.403,0,37.634
	c0.84,3.391,36.998,28.455,40.941,28.455h12.737h0.002l0.002-0.002l0.002,0.002c3.943,0,40.076-25.4,40.941-28.453
	c0.256-0.912,0.452-8.383,0.5-16.448c-0.004,0-0.004,0-0.004,0C95.678,40.317,95.554,30.192,95.126,28.456z"/>
<g>
	<path fill="#333333" d="M228.57,72.979c-2.966,0-3.008-0.012-5.313-0.012h-2.204c-0.052-0.543-0.124-0.938-0.124-1.33
		c-0.003-6.744-0.02-13.483,0.014-20.229c0.026-4.396,0.876-8.603,3.359-12.326c3.213-4.824,7.986-6.988,13.555-7.517
		c5.574-0.527,10.921,0.277,15.475,3.874c4.43,3.495,6.35,8.393,6.531,13.793c0.273,7.811,0.074,15.635,0.074,23.596
		c-3.043,0-3.689,0-7.55,0V71.09c0-6.678,0.022-13.355-0.022-20.028c-0.009-1.415-0.15-2.849-0.438-4.243
		c-1.134-5.402-5.894-8.372-11.442-8.374c-5.551-0.008-10.313,2.948-11.455,8.361c-0.297,1.385-0.431,2.821-0.438,4.231
		c-0.047,6.623-0.021,13.244-0.021,19.868C228.57,71.5,228.57,72.099,228.57,72.979"/>
	<path fill="#333333" d="M154.016,42.752c-4.348,4.347-14.329,3.156-16.95,3.156c-2.414,0-3.587-1.186-3.614-3.556
		c-0.012-1.736-0.008-3.479-0.003-5.219l-0.004-3.416c-0.004-0.557-0.004-1.114-0.003-1.673v-0.696l0.02-0.016
		c0.004-0.215,0.009-0.432,0.02-0.648c0.307-6.868,5.791-11.844,12.438-11.353c1.104,0.085,2.18,0.328,3.209,0.7
		c5.316,1.729,9.156,6.72,9.156,12.607C158.284,36.125,156.917,39.847,154.016,42.752 M155.028,13.069
		c-11.961-6.113-24.651-0.9-28.755,10.478c-1.281,3.565-1.048,10.754-1.088,14.556c-0.189,17.985-0.085,14.522-0.077,32.504
		c0,0.742,0.094,1.479,0.146,2.261h8.21V53.412c3.702,0,8.183,0.135,11.51-0.027c5.87-0.283,11.476-1.521,15.793-5.914
		C170.566,37.514,167.527,19.461,155.028,13.069"/>
	<path fill="#333333" d="M287.458,66.767c-8.448-0.035-14.022-5.635-13.999-14.067c0.02-8.527,5.859-14.513,14.145-14.502
		c8.252,0.012,13.995,6.028,13.973,14.656C301.556,61.285,295.96,66.799,287.458,66.767 M308.88,54.695l0.033-3.647
		c0,0-0.023,0.082-0.063,0.22c-0.011-0.197-0.044-0.393-0.059-0.588c0-0.076,0-0.15,0-0.227c-0.027-1.262-0.242-2.463-0.589-3.634
		c-0.813-3.405-2.317-6.325-4.539-8.748c-0.944-1.107-3.664-3.702-8.241-5.265c-0.072-0.022-0.138-0.049-0.207-0.073
		c-0.704-0.229-1.47-0.434-2.268-0.608c-0.009-0.003-0.021-0.007-0.033-0.008c-1.582-0.342-3.334-0.554-5.268-0.554
		c0,0,0.005,0.002,0.005,0.006c-7.15-0.11-13.28,2.496-17.684,8.813c-3.527,5.061-4.173,10.779-3.295,16.806
		c1.452,9.896,10.335,16.805,19.915,16.262c4.355,0.064,11.289-0.581,14.982-4.978c0,0,0.048,5.29-0.182,7.37
		c-0.77,7.059-4.313,11.625-10.957,12.527c-1.745,0.235-3.813,0.268-5.291,0.092c-3.613-0.422-7.727-2.092-9.904-6.198
		c-0.188-0.354-0.604-0.829-0.918-0.838c-3.449-0.057-3.925,0-6.834,0h-0.079c-0.046,0.398-0.092,0.556-0.076,0.723
		c0.03,0.288,0.087,0.589,0.168,0.868c0.271,0.895,0.624,1.829,0.905,2.416c1.92,3.941,3.815,5.447,7.395,7.652
		c4.115,2.537,8.496,3.125,13.285,2.867c9.268-0.497,15.479-5.079,18.25-13.641c0.515-1.588,1.406-5.666,1.406-7.935l0,0v-0.044
		C309.06,68.764,308.996,60.105,308.88,54.695"/>
	<path fill="#333333" d="M183.907,66.267c-5.104-2.402-8.023-7.922-7.637-14.44c0.374-6.265,4.125-11.246,9.689-12.851
		c5.92-1.708,12.05,0.206,15.377,4.839c1.951,2.722,2.717,5.814,2.748,8.314C204.048,66.068,192.228,70.186,183.907,66.267
		 M214.355,72.986l-3.223-22.998c-0.244-2.068-0.817-4.156-1.588-6.065c-5.362-13.422-22.318-15.148-31.719-8.477
		c-6.8,4.821-9.131,11.717-8.636,19.759c0.623,10.11,7.09,17.449,16.8,18.929c0.96,0.144,1.932,0.201,2.9,0.193
		c9.088-0.021,12.553-3.962,14.236-5.983c0.637-0.771,2.016-2.932,2.016-2.932l1.002,7.574h2.346h5.512c0,0-0.006,0.057-0.018,0
		H214.355z"/>
	<path fill="#333333" d="M328.853,66.267c-5.102-2.402-8.018-7.922-7.631-14.44c0.372-6.265,4.126-11.246,9.689-12.851
		c5.912-1.708,12.045,0.206,15.377,4.839c1.951,2.722,2.713,5.814,2.741,8.314C348.998,66.068,337.177,70.186,328.853,66.267
		 M359.306,72.986l-3.221-22.998c-0.252-2.068-0.818-4.156-1.586-6.065c-5.365-13.422-22.32-15.148-31.729-8.477
		c-6.796,4.821-9.123,11.717-8.627,19.759c0.621,10.11,7.088,17.449,16.799,18.929c0.96,0.144,1.93,0.201,2.898,0.193
		c9.089-0.021,12.548-3.962,14.236-5.983c0.637-0.771,2.017-2.932,2.017-2.932l1.003,7.574h2.346h5.509c0,0-0.005,0.057-0.016,0
		H359.306z"/>
	<path fill="#333333" d="M228.57,72.979c-2.966,0-3.008-0.012-5.313-0.012h-2.204c-0.052-0.543-0.124-0.938-0.124-1.33
		c-0.003-6.744-0.02-13.483,0.014-20.229c0.026-4.396,0.876-8.603,3.359-12.326c3.213-4.824,7.986-6.988,13.555-7.517
		c5.574-0.527,10.921,0.277,15.475,3.874c4.43,3.495,6.35,8.393,6.531,13.793c0.273,7.811,0.074,15.635,0.074,23.596
		c-3.043,0-3.689,0-7.55,0V71.09c0-6.678,0.022-13.355-0.022-20.028c-0.009-1.415-0.15-2.849-0.438-4.243
		c-1.134-5.402-5.894-8.372-11.442-8.374c-5.551-0.008-10.313,2.948-11.455,8.361c-0.297,1.385-0.431,2.821-0.438,4.231
		c-0.047,6.623-0.021,13.244-0.021,19.868C228.57,71.5,228.57,72.099,228.57,72.979"/>
</g>
<g>
	<g>
		<g>
			
				<linearGradient id="SVGID_2_" gradientUnits="userSpaceOnUse" x1="-1575.5327" y1="-953.3569" x2="-1575.5327" y2="-858.812" gradientTransform="matrix(1 0 0 1 1616.9844 953.3574)">
				<stop  offset="0" style="stop-color:#ACD4EC"/>
				<stop  offset="0.6053" style="stop-color:#245A96"/>
				<stop  offset="1" style="stop-color:#1F3B60"/>
			</linearGradient>
			<path fill="url(#SVGID_2_)" d="M82.387,28.456C81.549,25.067,45.392,0,41.45,0C37.506,0,1.375,25.406,0.509,28.456
				c-0.552,1.971-0.794,34.403,0,37.634c0.84,3.391,36.998,28.455,40.941,28.455h12.737c-0.06,0-0.129-0.01-0.203-0.018l0,0
				c-0.081-0.014-0.166-0.03-0.248-0.049l-0.007-0.005c-1.091-0.278-3.217-1.367-5.947-2.977l0.005-0.003
				c-0.396-0.232-0.806-0.479-1.225-0.732c-0.083-0.047-0.168-0.1-0.251-0.148c-0.352-0.217-0.711-0.436-1.082-0.663
				c-0.072-0.047-0.141-0.088-0.21-0.13c-0.403-0.25-0.806-0.502-1.222-0.764c-0.039-0.023-0.079-0.047-0.115-0.074
				c-0.46-0.289-0.928-0.586-1.402-0.893c-11.965-7.667-28.466-19.722-29.029-22c-0.604-2.453-0.609-21.688-0.334-31.706
				c0.007-0.055,0.016-0.105,0.025-0.138c0.597-2.111,25.611-19.698,28.339-19.698c0.035,0,0.067,0.002,0.106,0.004
				c0.021,0,0.046-0.004,0.063-0.004c0.046,0,0.097,0.004,0.154,0.016c0.021,0,0.042,0.005,0.06,0.01
				c0.044,0.008,0.083,0.018,0.131,0.032c0.027,0.005,0.056,0.013,0.081,0.023c0.053,0.013,0.095,0.027,0.146,0.043
				c0.032,0.014,0.062,0.023,0.094,0.037c0.055,0.019,0.108,0.038,0.163,0.06c0.038,0.017,0.072,0.03,0.106,0.044
				c0.063,0.028,0.125,0.053,0.192,0.081c0.035,0.016,0.068,0.03,0.108,0.046c0.071,0.035,0.147,0.067,0.223,0.102
				c0.033,0.021,0.067,0.032,0.102,0.053c0.089,0.041,0.182,0.085,0.275,0.134c0.026,0.011,0.053,0.025,0.076,0.039
				c0.123,0.06,0.246,0.122,0.374,0.189c0,0,0.004,0.004,0.011,0.007c1.112,0.58,2.528,1.409,4.124,2.399
				c0.011,0.004,0.019,0.009,0.027,0.016h-0.002c8.311,5.159,21.478,14.677,21.901,16.369c0.55,2.238,0.385,24.691,0,26.053
				c-0.433,1.529-13.698,11.195-22.007,16.396C50.972,78.666,53.436,80,54.193,80c2.721,0,27.742-17.592,28.341-19.701
				c0.009-0.039,0.08-0.111,0.195-0.217C83.004,50.042,82.997,30.901,82.387,28.456z"/>
			
				<linearGradient id="SVGID_3_" gradientUnits="userSpaceOnUse" x1="-1562.7969" y1="-858.814" x2="-1562.7969" y2="-858.8118" gradientTransform="matrix(1 0 0 1 1616.9844 953.3574)">
				<stop  offset="0" style="stop-color:#ACD4EC"/>
				<stop  offset="0.6053" style="stop-color:#245A96"/>
				<stop  offset="1" style="stop-color:#1F3B60"/>
			</linearGradient>
			<polygon fill="url(#SVGID_3_)" points="54.188,94.543 54.187,94.545 54.188,94.545 			"/>
		</g>
	</g>
	
		<linearGradient id="SVGID_4_" gradientUnits="userSpaceOnUse" x1="-1562.7935" y1="-858.8125" x2="-1562.7935" y2="-953.3574" gradientTransform="matrix(1 0 0 1 1616.9844 953.3574)">
		<stop  offset="0" style="stop-color:#ACD4EC"/>
		<stop  offset="0.6053" style="stop-color:#245A96"/>
		<stop  offset="1" style="stop-color:#1F3B60"/>
	</linearGradient>
	<path fill="url(#SVGID_4_)" d="M95.126,28.456C94.283,25.067,58.149,0.013,54.188,0l0,0H41.45c0.866,0,3.294,1.213,6.553,3.136
		c0.251,0.151,0.509,0.303,0.771,0.46c0.092,0.06,0.182,0.113,0.279,0.168c0.333,0.2,0.674,0.41,1.02,0.624
		c0.025,0.014,0.048,0.03,0.074,0.042c0.384,0.239,0.782,0.483,1.181,0.736c0.051,0.03,0.104,0.062,0.15,0.092
		c0.338,0.214,0.684,0.431,1.038,0.657c0.104,0.064,0.212,0.134,0.316,0.198c12.001,7.653,28.988,20.032,29.557,22.343
		c0.518,2.077,0.598,16.135,0.446,26.484c-0.009,0.006-0.022,0.006-0.037,0.011c-0.061,2.853-0.151,4.962-0.26,5.349
		c-0.598,2.111-25.615,19.703-28.343,19.703c-2.729,0-27.761-17.355-28.341-19.703c-0.555-2.238-0.387-24.688,0-26.051
		c0.421-1.491,13.047-10.721,21.375-16c0.062-0.039,0.607-0.33,0.669-0.371c-0.016-0.012-0.03-0.016-0.046-0.025l0,0
		c-3.182-1.973-5.646-3.304-6.401-3.304c-0.018,0-0.042,0.004-0.064,0.004c-0.033-0.002-0.071-0.004-0.103-0.004
		c-2.727,0-27.743,17.587-28.34,19.7c-0.011,0.031-0.018,0.081-0.027,0.136c-0.271,10.017-0.267,29.252,0.336,31.708
		c0.658,2.656,22.998,18.62,34.539,25.402c0,0-0.003,0.005-0.005,0.005c2.728,1.607,4.851,2.696,5.944,2.975l0.005,0.005
		c0.087,0.019,0.175,0.039,0.248,0.049v0.002c0.076,0.006,0.145,0.016,0.205,0.016l0.002-0.002l0.002,0.002
		c3.943,0,40.076-25.4,40.941-28.453c0.256-0.912,0.452-8.383,0.5-16.448c-0.004,0-0.004,0-0.004,0
		C95.678,40.317,95.554,30.192,95.126,28.456z"/>
</g>
</svg>
